<?xml version="1.0" encoding="UTF-8"?>
<svg id="_圖層_2" data-name="圖層 2" xmlns="http://www.w3.org/2000/svg" viewBox="0 0 101.73 85.08">
  <defs>
    <style>
      .cls-1 {
        fill: #c9caca;
      }
    </style>
  </defs>
  <g id="_圖層_1-2" data-name="圖層 1">
    <g>
      <path class="cls-1" d="m60.57,18.08c-.52-.12-1.04-.22-1.56-.3.35-.63.72-1.23,1.13-1.81.18.69.32,1.4.43,2.11Z"/>
      <path class="cls-1" d="m101.73,55.63c0,9.73-7.89,17.62-17.62,17.62-.49,0-.97-.02-1.45-.06v.06c0,6.1-4.95,11.04-11.04,11.04-3.49,0-6.6-1.61-8.61-4.13-.73,2.83-3.3,4.92-6.36,4.92-3.63,0-6.57-2.94-6.57-6.57,0-.08,0-.16.01-.24-2.98-.36-5.83-1.16-8.48-2.33-4.4,3.71-10.09,5.95-16.29,5.95-13.98,0-25.32-11.34-25.32-25.32,0-12.45,8.99-22.8,20.83-24.91-1.7-3.06-2.67-6.58-2.67-10.33C18.16,9.55,27.71,0,39.49,0c9.93,0,18.27,6.78,20.65,15.97-.41.58-.78,1.18-1.13,1.81.52.08,1.04.18,1.56.3-.11-.71-.25-1.42-.43-2.11,3.39-4.83,9-7.98,15.34-7.98,10.35,0,18.74,8.39,18.74,18.75,0,4.65-1.7,8.91-4.51,12.18,6.99,2.34,12.02,8.94,12.02,16.71Z"/>
      <path class="cls-1" d="m60.57,18.08c-.52-.12-1.04-.22-1.56-.3.35-.63.72-1.23,1.13-1.81.18.69.32,1.4.43,2.11Z"/>
    </g>
  </g>
</svg>